ISO-10303-21;
HEADER;
FILE_DESCRIPTION(('FreeCAD Model'),'2;1');
FILE_NAME('Open CASCADE Shape Model','2026-07-31T16:19:16',('FreeCAD'),(
    'FreeCAD'),'Open CASCADE STEP processor 7.8','FreeCAD','Unknown');
FILE_SCHEMA(('AUTOMOTIVE_DESIGN { 1 0 10303 214 1 1 1 1 }'));
ENDSEC;
DATA;
#1 = APPLICATION_PROTOCOL_DEFINITION('international standard',
  'automotive_design',2000,#2);
#2 = APPLICATION_CONTEXT(
  'core data for automotive mechanical design processes');
#3 = SHAPE_DEFINITION_REPRESENTATION(#4,#10);
#4 = PRODUCT_DEFINITION_SHAPE('','',#5);
#5 = PRODUCT_DEFINITION('design','',#6,#9);
#6 = PRODUCT_DEFINITION_FORMATION('','',#7);
#7 = PRODUCT('Open CASCADE STEP translator 7.8 4',
  'Open CASCADE STEP translator 7.8 4','',(#8));
#8 = PRODUCT_CONTEXT('',#2,'mechanical');
#9 = PRODUCT_DEFINITION_CONTEXT('part definition',#2,'design');
#10 = SHAPE_REPRESENTATION('',(#11,#15,#230,#433,#486,#539,#689),#839);
#11 = AXIS2_PLACEMENT_3D('',#12,#13,#14);
#12 = CARTESIAN_POINT('',(0.,0.,0.));
#13 = DIRECTION('',(0.,0.,1.));
#14 = DIRECTION('',(1.,0.,-0.));
#15 = MANIFOLD_SOLID_BREP('',#16);
#16 = CLOSED_SHELL('',(#17,#68,#83,#134,#143,#153,#168,#210,#221));
#17 = ADVANCED_FACE('',(#18),#63,.T.);
#18 = FACE_BOUND('',#19,.T.);
#19 = EDGE_LOOP('',(#20,#31,#40,#48,#55,#56));
#20 = ORIENTED_EDGE('',*,*,#21,.F.);
#21 = EDGE_CURVE('',#22,#24,#26,.T.);
#22 = VERTEX_POINT('',#23);
#23 = CARTESIAN_POINT('',(75.,2.5,70.));
#24 = VERTEX_POINT('',#25);
#25 = CARTESIAN_POINT('',(75.,-2.5,70.));
#26 = CIRCLE('',#27,2.5);
#27 = AXIS2_PLACEMENT_3D('',#28,#29,#30);
#28 = CARTESIAN_POINT('',(75.,0.,70.));
#29 = DIRECTION('',(0.,0.,1.));
#30 = DIRECTION('',(1.,0.,0.));
#31 = ORIENTED_EDGE('',*,*,#32,.F.);
#32 = EDGE_CURVE('',#33,#22,#35,.T.);
#33 = VERTEX_POINT('',#34);
#34 = CARTESIAN_POINT('',(77.5,-6.123233995737E-16,67.5));
#35 = ELLIPSE('',#36,3.535533905933,2.5);
#36 = AXIS2_PLACEMENT_3D('',#37,#38,#39);
#37 = CARTESIAN_POINT('',(75.,0.,70.));
#38 = DIRECTION('',(0.707106781187,0.,0.707106781187));
#39 = DIRECTION('',(-0.707106781187,0.,0.707106781187));
#40 = ORIENTED_EDGE('',*,*,#41,.F.);
#41 = EDGE_CURVE('',#42,#33,#44,.T.);
#42 = VERTEX_POINT('',#43);
#43 = CARTESIAN_POINT('',(77.5,-6.123233995737E-16,0.));
#44 = LINE('',#45,#46);
#45 = CARTESIAN_POINT('',(77.5,-6.123233995737E-16,0.));
#46 = VECTOR('',#47,1.);
#47 = DIRECTION('',(0.,0.,1.));
#48 = ORIENTED_EDGE('',*,*,#49,.T.);
#49 = EDGE_CURVE('',#42,#42,#50,.T.);
#50 = CIRCLE('',#51,2.5);
#51 = AXIS2_PLACEMENT_3D('',#52,#53,#54);
#52 = CARTESIAN_POINT('',(75.,0.,0.));
#53 = DIRECTION('',(0.,0.,1.));
#54 = DIRECTION('',(1.,0.,0.));
#55 = ORIENTED_EDGE('',*,*,#41,.T.);
#56 = ORIENTED_EDGE('',*,*,#57,.F.);
#57 = EDGE_CURVE('',#24,#33,#58,.T.);
#58 = ELLIPSE('',#59,3.535533905933,2.5);
#59 = AXIS2_PLACEMENT_3D('',#60,#61,#62);
#60 = CARTESIAN_POINT('',(75.,0.,70.));
#61 = DIRECTION('',(0.707106781187,0.,0.707106781187));
#62 = DIRECTION('',(-0.707106781187,0.,0.707106781187));
#63 = CYLINDRICAL_SURFACE('',#64,2.5);
#64 = AXIS2_PLACEMENT_3D('',#65,#66,#67);
#65 = CARTESIAN_POINT('',(75.,0.,0.));
#66 = DIRECTION('',(0.,0.,1.));
#67 = DIRECTION('',(1.,0.,0.));
#68 = ADVANCED_FACE('',(#69),#78,.T.);
#69 = FACE_BOUND('',#70,.T.);
#70 = EDGE_LOOP('',(#71,#77));
#71 = ORIENTED_EDGE('',*,*,#72,.T.);
#72 = EDGE_CURVE('',#24,#22,#73,.T.);
#73 = LINE('',#74,#75);
#74 = CARTESIAN_POINT('',(75.,0.,70.));
#75 = VECTOR('',#76,1.);
#76 = DIRECTION('',(0.,1.,0.));
#77 = ORIENTED_EDGE('',*,*,#21,.T.);
#78 = PLANE('',#79);
#79 = AXIS2_PLACEMENT_3D('',#80,#81,#82);
#80 = CARTESIAN_POINT('',(75.,0.,70.));
#81 = DIRECTION('',(0.,0.,1.));
#82 = DIRECTION('',(1.,0.,0.));
#83 = ADVANCED_FACE('',(#84),#129,.T.);
#84 = FACE_BOUND('',#85,.T.);
#85 = EDGE_LOOP('',(#86,#97,#106,#112,#113,#120,#121,#122));
#86 = ORIENTED_EDGE('',*,*,#87,.F.);
#87 = EDGE_CURVE('',#88,#90,#92,.T.);
#88 = VERTEX_POINT('',#89);
#89 = CARTESIAN_POINT('',(125.,2.5,70.));
#90 = VERTEX_POINT('',#91);
#91 = CARTESIAN_POINT('',(125.,-2.5,70.));
#92 = CIRCLE('',#93,2.5);
#93 = AXIS2_PLACEMENT_3D('',#94,#95,#96);
#94 = CARTESIAN_POINT('',(125.,0.,70.));
#95 = DIRECTION('',(1.,-0.,2.22044604925E-16));
#96 = DIRECTION('',(2.22044604925E-16,0.,-1.));
#97 = ORIENTED_EDGE('',*,*,#98,.T.);
#98 = EDGE_CURVE('',#88,#99,#101,.T.);
#99 = VERTEX_POINT('',#100);
#100 = CARTESIAN_POINT('',(122.5,-6.123233995737E-16,67.5));
#101 = ELLIPSE('',#102,3.535533905933,2.5);
#102 = AXIS2_PLACEMENT_3D('',#103,#104,#105);
#103 = CARTESIAN_POINT('',(125.,0.,70.));
#104 = DIRECTION('',(-0.707106781187,0.,0.707106781187));
#105 = DIRECTION('',(0.707106781187,0.,0.707106781187));
#106 = ORIENTED_EDGE('',*,*,#107,.F.);
#107 = EDGE_CURVE('',#33,#99,#108,.T.);
#108 = LINE('',#109,#110);
#109 = CARTESIAN_POINT('',(75.,-6.123233995737E-16,67.5));
#110 = VECTOR('',#111,1.);
#111 = DIRECTION('',(1.,0.,2.22044604925E-16));
#112 = ORIENTED_EDGE('',*,*,#32,.T.);
#113 = ORIENTED_EDGE('',*,*,#114,.T.);
#114 = EDGE_CURVE('',#22,#24,#115,.T.);
#115 = CIRCLE('',#116,2.5);
#116 = AXIS2_PLACEMENT_3D('',#117,#118,#119);
#117 = CARTESIAN_POINT('',(75.,0.,70.));
#118 = DIRECTION('',(1.,-0.,2.22044604925E-16));
#119 = DIRECTION('',(2.22044604925E-16,0.,-1.));
#120 = ORIENTED_EDGE('',*,*,#57,.T.);
#121 = ORIENTED_EDGE('',*,*,#107,.T.);
#122 = ORIENTED_EDGE('',*,*,#123,.T.);
#123 = EDGE_CURVE('',#99,#90,#124,.T.);
#124 = ELLIPSE('',#125,3.535533905933,2.5);
#125 = AXIS2_PLACEMENT_3D('',#126,#127,#128);
#126 = CARTESIAN_POINT('',(125.,0.,70.));
#127 = DIRECTION('',(-0.707106781187,0.,0.707106781187));
#128 = DIRECTION('',(0.707106781187,0.,0.707106781187));
#129 = CYLINDRICAL_SURFACE('',#130,2.5);
#130 = AXIS2_PLACEMENT_3D('',#131,#132,#133);
#131 = CARTESIAN_POINT('',(75.,0.,70.));
#132 = DIRECTION('',(1.,0.,2.22044604925E-16));
#133 = DIRECTION('',(2.22044604925E-16,0.,-1.));
#134 = ADVANCED_FACE('',(#135),#138,.F.);
#135 = FACE_BOUND('',#136,.T.);
#136 = EDGE_LOOP('',(#137));
#137 = ORIENTED_EDGE('',*,*,#49,.F.);
#138 = PLANE('',#139);
#139 = AXIS2_PLACEMENT_3D('',#140,#141,#142);
#140 = CARTESIAN_POINT('',(75.,0.,0.));
#141 = DIRECTION('',(0.,0.,1.));
#142 = DIRECTION('',(1.,0.,0.));
#143 = ADVANCED_FACE('',(#144),#148,.F.);
#144 = FACE_BOUND('',#145,.F.);
#145 = EDGE_LOOP('',(#146,#147));
#146 = ORIENTED_EDGE('',*,*,#72,.T.);
#147 = ORIENTED_EDGE('',*,*,#114,.T.);
#148 = PLANE('',#149);
#149 = AXIS2_PLACEMENT_3D('',#150,#151,#152);
#150 = CARTESIAN_POINT('',(75.,0.,70.));
#151 = DIRECTION('',(1.,0.,2.22044604925E-16));
#152 = DIRECTION('',(2.22044604925E-16,0.,-1.));
#153 = ADVANCED_FACE('',(#154),#163,.T.);
#154 = FACE_BOUND('',#155,.T.);
#155 = EDGE_LOOP('',(#156,#162));
#156 = ORIENTED_EDGE('',*,*,#157,.T.);
#157 = EDGE_CURVE('',#90,#88,#158,.T.);
#158 = LINE('',#159,#160);
#159 = CARTESIAN_POINT('',(125.,0.,70.));
#160 = VECTOR('',#161,1.);
#161 = DIRECTION('',(0.,1.,0.));
#162 = ORIENTED_EDGE('',*,*,#87,.T.);
#163 = PLANE('',#164);
#164 = AXIS2_PLACEMENT_3D('',#165,#166,#167);
#165 = CARTESIAN_POINT('',(125.,0.,70.));
#166 = DIRECTION('',(1.,0.,2.22044604925E-16));
#167 = DIRECTION('',(2.22044604925E-16,0.,-1.));
#168 = ADVANCED_FACE('',(#169),#205,.T.);
#169 = FACE_BOUND('',#170,.T.);
#170 = EDGE_LOOP('',(#171,#181,#188,#189,#190,#197,#198));
#171 = ORIENTED_EDGE('',*,*,#172,.T.);
#172 = EDGE_CURVE('',#173,#175,#177,.T.);
#173 = VERTEX_POINT('',#174);
#174 = CARTESIAN_POINT('',(127.5,-6.123233995737E-16,0.));
#175 = VERTEX_POINT('',#176);
#176 = CARTESIAN_POINT('',(127.5,-6.123233995737E-16,70.));
#177 = LINE('',#178,#179);
#178 = CARTESIAN_POINT('',(127.5,-6.123233995737E-16,0.));
#179 = VECTOR('',#180,1.);
#180 = DIRECTION('',(0.,0.,1.));
#181 = ORIENTED_EDGE('',*,*,#182,.F.);
#182 = EDGE_CURVE('',#90,#175,#183,.T.);
#183 = CIRCLE('',#184,2.5);
#184 = AXIS2_PLACEMENT_3D('',#185,#186,#187);
#185 = CARTESIAN_POINT('',(125.,0.,70.));
#186 = DIRECTION('',(0.,0.,1.));
#187 = DIRECTION('',(1.,0.,0.));
#188 = ORIENTED_EDGE('',*,*,#123,.F.);
#189 = ORIENTED_EDGE('',*,*,#98,.F.);
#190 = ORIENTED_EDGE('',*,*,#191,.F.);
#191 = EDGE_CURVE('',#175,#88,#192,.T.);
#192 = CIRCLE('',#193,2.5);
#193 = AXIS2_PLACEMENT_3D('',#194,#195,#196);
#194 = CARTESIAN_POINT('',(125.,0.,70.));
#195 = DIRECTION('',(0.,0.,1.));
#196 = DIRECTION('',(1.,0.,0.));
#197 = ORIENTED_EDGE('',*,*,#172,.F.);
#198 = ORIENTED_EDGE('',*,*,#199,.T.);
#199 = EDGE_CURVE('',#173,#173,#200,.T.);
#200 = CIRCLE('',#201,2.5);
#201 = AXIS2_PLACEMENT_3D('',#202,#203,#204);
#202 = CARTESIAN_POINT('',(125.,0.,0.));
#203 = DIRECTION('',(0.,0.,1.));
#204 = DIRECTION('',(1.,0.,0.));
#205 = CYLINDRICAL_SURFACE('',#206,2.5);
#206 = AXIS2_PLACEMENT_3D('',#207,#208,#209);
#207 = CARTESIAN_POINT('',(125.,0.,0.));
#208 = DIRECTION('',(0.,0.,1.));
#209 = DIRECTION('',(1.,0.,0.));
#210 = ADVANCED_FACE('',(#211),#216,.T.);
#211 = FACE_BOUND('',#212,.T.);
#212 = EDGE_LOOP('',(#213,#214,#215));
#213 = ORIENTED_EDGE('',*,*,#182,.T.);
#214 = ORIENTED_EDGE('',*,*,#191,.T.);
#215 = ORIENTED_EDGE('',*,*,#157,.F.);
#216 = PLANE('',#217);
#217 = AXIS2_PLACEMENT_3D('',#218,#219,#220);
#218 = CARTESIAN_POINT('',(125.,0.,70.));
#219 = DIRECTION('',(0.,0.,1.));
#220 = DIRECTION('',(1.,0.,0.));
#221 = ADVANCED_FACE('',(#222),#225,.F.);
#222 = FACE_BOUND('',#223,.T.);
#223 = EDGE_LOOP('',(#224));
#224 = ORIENTED_EDGE('',*,*,#199,.F.);
#225 = PLANE('',#226);
#226 = AXIS2_PLACEMENT_3D('',#227,#228,#229);
#227 = CARTESIAN_POINT('',(125.,0.,0.));
#228 = DIRECTION('',(0.,0.,1.));
#229 = DIRECTION('',(1.,0.,0.));
#230 = MANIFOLD_SOLID_BREP('',#231);
#231 = CLOSED_SHELL('',(#232,#276,#346,#369,#380,#399,#422));
#232 = ADVANCED_FACE('',(#233),#271,.T.);
#233 = FACE_BOUND('',#234,.T.);
#234 = EDGE_LOOP('',(#235,#246,#255,#264));
#235 = ORIENTED_EDGE('',*,*,#236,.F.);
#236 = EDGE_CURVE('',#237,#239,#241,.T.);
#237 = VERTEX_POINT('',#238);
#238 = CARTESIAN_POINT('',(202.5,90.,80.));
#239 = VERTEX_POINT('',#240);
#240 = CARTESIAN_POINT('',(197.87337297912,91.314327780298,
    78.685672219702));
#241 = ELLIPSE('',#242,3.535533905933,2.5);
#242 = AXIS2_PLACEMENT_3D('',#243,#244,#245);
#243 = CARTESIAN_POINT('',(200.,90.,80.));
#244 = DIRECTION('',(0.,0.707106781187,0.707106781187));
#245 = DIRECTION('',(0.,-0.707106781187,0.707106781187));
#246 = ORIENTED_EDGE('',*,*,#247,.T.);
#247 = EDGE_CURVE('',#237,#248,#250,.T.);
#248 = VERTEX_POINT('',#249);
#249 = CARTESIAN_POINT('',(201.11803398875,90.,82.2360679775));
#250 = CIRCLE('',#251,2.5);
#251 = AXIS2_PLACEMENT_3D('',#252,#253,#254);
#252 = CARTESIAN_POINT('',(200.,90.,80.));
#253 = DIRECTION('',(0.,1.,2.22044604925E-16));
#254 = DIRECTION('',(1.,0.,-0.));
#255 = ORIENTED_EDGE('',*,*,#256,.T.);
#256 = EDGE_CURVE('',#248,#257,#259,.T.);
#257 = VERTEX_POINT('',#258);
#258 = CARTESIAN_POINT('',(197.7639320225,92.5,81.11803398875));
#259 = ELLIPSE('',#260,3.535533905933,2.5);
#260 = AXIS2_PLACEMENT_3D('',#261,#262,#263);
#261 = CARTESIAN_POINT('',(200.,90.,80.));
#262 = DIRECTION('',(-0.632455532034,-0.707106781187,0.316227766017));
#263 = DIRECTION('',(-0.632455532034,0.707106781187,0.316227766017));
#264 = ORIENTED_EDGE('',*,*,#265,.T.);
#265 = EDGE_CURVE('',#257,#239,#266,.T.);
#266 = ELLIPSE('',#267,3.535533905933,2.5);
#267 = AXIS2_PLACEMENT_3D('',#268,#269,#270);
#268 = CARTESIAN_POINT('',(200.,90.,80.));
#269 = DIRECTION('',(-0.632455532034,-0.707106781187,0.316227766017));
#270 = DIRECTION('',(-0.632455532034,0.707106781187,0.316227766017));
#271 = CYLINDRICAL_SURFACE('',#272,2.5);
#272 = AXIS2_PLACEMENT_3D('',#273,#274,#275);
#273 = CARTESIAN_POINT('',(200.,90.,80.));
#274 = DIRECTION('',(0.,1.,2.22044604925E-16));
#275 = DIRECTION('',(1.,0.,-0.));
#276 = ADVANCED_FACE('',(#277),#341,.T.);
#277 = FACE_BOUND('',#278,.T.);
#278 = EDGE_LOOP('',(#279,#287,#296,#305,#314,#323,#330,#331,#332,#333,
    #334));
#279 = ORIENTED_EDGE('',*,*,#280,.T.);
#280 = EDGE_CURVE('',#237,#281,#283,.T.);
#281 = VERTEX_POINT('',#282);
#282 = CARTESIAN_POINT('',(202.5,120.,80.));
#283 = LINE('',#284,#285);
#284 = CARTESIAN_POINT('',(202.5,90.,80.));
#285 = VECTOR('',#286,1.);
#286 = DIRECTION('',(0.,1.,2.22044604925E-16));
#287 = ORIENTED_EDGE('',*,*,#288,.F.);
#288 = EDGE_CURVE('',#289,#281,#291,.T.);
#289 = VERTEX_POINT('',#290);
#290 = CARTESIAN_POINT('',(201.11803398875,120.,82.2360679775));
#291 = CIRCLE('',#292,2.5);
#292 = AXIS2_PLACEMENT_3D('',#293,#294,#295);
#293 = CARTESIAN_POINT('',(200.,120.,80.));
#294 = DIRECTION('',(0.,1.,2.22044604925E-16));
#295 = DIRECTION('',(1.,0.,-0.));
#296 = ORIENTED_EDGE('',*,*,#297,.F.);
#297 = EDGE_CURVE('',#298,#289,#300,.T.);
#298 = VERTEX_POINT('',#299);
#299 = CARTESIAN_POINT('',(201.11803255855,119.99999840099,
    82.236068692597));
#300 = ELLIPSE('',#301,3.535533905933,2.5);
#301 = AXIS2_PLACEMENT_3D('',#302,#303,#304);
#302 = CARTESIAN_POINT('',(200.,120.,80.));
#303 = DIRECTION('',(-0.632455532034,0.707106781187,0.316227766017));
#304 = DIRECTION('',(-0.632455532034,-0.707106781187,0.316227766017));
#305 = ORIENTED_EDGE('',*,*,#306,.F.);
#306 = EDGE_CURVE('',#307,#298,#309,.T.);
#307 = VERTEX_POINT('',#308);
#308 = CARTESIAN_POINT('',(197.7639320225,117.5,81.11803398875));
#309 = ELLIPSE('',#310,3.535533905933,2.5);
#310 = AXIS2_PLACEMENT_3D('',#311,#312,#313);
#311 = CARTESIAN_POINT('',(200.,120.,80.));
#312 = DIRECTION('',(-0.632455532034,0.707106781187,0.316227766017));
#313 = DIRECTION('',(-0.632455532034,-0.707106781187,0.316227766017));
#314 = ORIENTED_EDGE('',*,*,#315,.F.);
#315 = EDGE_CURVE('',#316,#307,#318,.T.);
#316 = VERTEX_POINT('',#317);
#317 = CARTESIAN_POINT('',(197.87337297912,118.6856722197,
    78.685672219702));
#318 = ELLIPSE('',#319,3.535533905933,2.5);
#319 = AXIS2_PLACEMENT_3D('',#320,#321,#322);
#320 = CARTESIAN_POINT('',(200.,120.,80.));
#321 = DIRECTION('',(-0.632455532034,0.707106781187,0.316227766017));
#322 = DIRECTION('',(-0.632455532034,-0.707106781187,0.316227766017));
#323 = ORIENTED_EDGE('',*,*,#324,.T.);
#324 = EDGE_CURVE('',#316,#281,#325,.T.);
#325 = ELLIPSE('',#326,3.535533905933,2.5);
#326 = AXIS2_PLACEMENT_3D('',#327,#328,#329);
#327 = CARTESIAN_POINT('',(200.,120.,80.));
#328 = DIRECTION('',(0.,-0.707106781187,0.707106781187));
#329 = DIRECTION('',(0.,0.707106781187,0.707106781187));
#330 = ORIENTED_EDGE('',*,*,#280,.F.);
#331 = ORIENTED_EDGE('',*,*,#236,.T.);
#332 = ORIENTED_EDGE('',*,*,#265,.F.);
#333 = ORIENTED_EDGE('',*,*,#256,.F.);
#334 = ORIENTED_EDGE('',*,*,#335,.T.);
#335 = EDGE_CURVE('',#248,#237,#336,.T.);
#336 = CIRCLE('',#337,2.5);
#337 = AXIS2_PLACEMENT_3D('',#338,#339,#340);
#338 = CARTESIAN_POINT('',(200.,90.,80.));
#339 = DIRECTION('',(0.,1.,2.22044604925E-16));
#340 = DIRECTION('',(1.,0.,-0.));
#341 = CYLINDRICAL_SURFACE('',#342,2.5);
#342 = AXIS2_PLACEMENT_3D('',#343,#344,#345);
#343 = CARTESIAN_POINT('',(200.,90.,80.));
#344 = DIRECTION('',(0.,1.,2.22044604925E-16));
#345 = DIRECTION('',(1.,0.,-0.));
#346 = ADVANCED_FACE('',(#347),#364,.F.);
#347 = FACE_BOUND('',#348,.F.);
#348 = EDGE_LOOP('',(#349,#357,#358));
#349 = ORIENTED_EDGE('',*,*,#350,.F.);
#350 = EDGE_CURVE('',#237,#351,#353,.T.);
#351 = VERTEX_POINT('',#352);
#352 = CARTESIAN_POINT('',(200.,90.,80.));
#353 = LINE('',#354,#355);
#354 = CARTESIAN_POINT('',(200.,90.,80.));
#355 = VECTOR('',#356,1.);
#356 = DIRECTION('',(-1.,0.,0.));
#357 = ORIENTED_EDGE('',*,*,#247,.T.);
#358 = ORIENTED_EDGE('',*,*,#359,.T.);
#359 = EDGE_CURVE('',#248,#351,#360,.T.);
#360 = LINE('',#361,#362);
#361 = CARTESIAN_POINT('',(200.,90.,80.));
#362 = VECTOR('',#363,1.);
#363 = DIRECTION('',(-0.4472135955,1.986027322598E-16,-0.894427191));
#364 = PLANE('',#365);
#365 = AXIS2_PLACEMENT_3D('',#366,#367,#368);
#366 = CARTESIAN_POINT('',(200.,90.,80.));
#367 = DIRECTION('',(0.,1.,2.22044604925E-16));
#368 = DIRECTION('',(1.,0.,-0.));
#369 = ADVANCED_FACE('',(#370),#375,.F.);
#370 = FACE_BOUND('',#371,.F.);
#371 = EDGE_LOOP('',(#372,#373,#374));
#372 = ORIENTED_EDGE('',*,*,#335,.T.);
#373 = ORIENTED_EDGE('',*,*,#350,.T.);
#374 = ORIENTED_EDGE('',*,*,#359,.F.);
#375 = PLANE('',#376);
#376 = AXIS2_PLACEMENT_3D('',#377,#378,#379);
#377 = CARTESIAN_POINT('',(200.,90.,80.));
#378 = DIRECTION('',(0.,1.,2.22044604925E-16));
#379 = DIRECTION('',(1.,0.,-0.));
#380 = ADVANCED_FACE('',(#381),#394,.T.);
#381 = FACE_BOUND('',#382,.T.);
#382 = EDGE_LOOP('',(#383,#390,#391,#392,#393));
#383 = ORIENTED_EDGE('',*,*,#384,.F.);
#384 = EDGE_CURVE('',#281,#289,#385,.T.);
#385 = CIRCLE('',#386,2.5);
#386 = AXIS2_PLACEMENT_3D('',#387,#388,#389);
#387 = CARTESIAN_POINT('',(200.,120.,80.));
#388 = DIRECTION('',(0.,1.,2.22044604925E-16));
#389 = DIRECTION('',(1.,0.,-0.));
#390 = ORIENTED_EDGE('',*,*,#324,.F.);
#391 = ORIENTED_EDGE('',*,*,#315,.T.);
#392 = ORIENTED_EDGE('',*,*,#306,.T.);
#393 = ORIENTED_EDGE('',*,*,#297,.T.);
#394 = CYLINDRICAL_SURFACE('',#395,2.5);
#395 = AXIS2_PLACEMENT_3D('',#396,#397,#398);
#396 = CARTESIAN_POINT('',(200.,90.,80.));
#397 = DIRECTION('',(0.,1.,2.22044604925E-16));
#398 = DIRECTION('',(1.,0.,-0.));
#399 = ADVANCED_FACE('',(#400),#417,.T.);
#400 = FACE_BOUND('',#401,.T.);
#401 = EDGE_LOOP('',(#402,#403,#411));
#402 = ORIENTED_EDGE('',*,*,#288,.T.);
#403 = ORIENTED_EDGE('',*,*,#404,.T.);
#404 = EDGE_CURVE('',#281,#405,#407,.T.);
#405 = VERTEX_POINT('',#406);
#406 = CARTESIAN_POINT('',(200.,120.,80.));
#407 = LINE('',#408,#409);
#408 = CARTESIAN_POINT('',(200.,120.,80.));
#409 = VECTOR('',#410,1.);
#410 = DIRECTION('',(-1.,0.,0.));
#411 = ORIENTED_EDGE('',*,*,#412,.F.);
#412 = EDGE_CURVE('',#289,#405,#413,.T.);
#413 = LINE('',#414,#415);
#414 = CARTESIAN_POINT('',(200.,120.,80.));
#415 = VECTOR('',#416,1.);
#416 = DIRECTION('',(-0.4472135955,1.986027322598E-16,-0.894427191));
#417 = PLANE('',#418);
#418 = AXIS2_PLACEMENT_3D('',#419,#420,#421);
#419 = CARTESIAN_POINT('',(200.,120.,80.));
#420 = DIRECTION('',(0.,1.,2.22044604925E-16));
#421 = DIRECTION('',(1.,0.,-0.));
#422 = ADVANCED_FACE('',(#423),#428,.T.);
#423 = FACE_BOUND('',#424,.T.);
#424 = EDGE_LOOP('',(#425,#426,#427));
#425 = ORIENTED_EDGE('',*,*,#404,.F.);
#426 = ORIENTED_EDGE('',*,*,#384,.T.);
#427 = ORIENTED_EDGE('',*,*,#412,.T.);
#428 = PLANE('',#429);
#429 = AXIS2_PLACEMENT_3D('',#430,#431,#432);
#430 = CARTESIAN_POINT('',(200.,120.,80.));
#431 = DIRECTION('',(0.,1.,2.22044604925E-16));
#432 = DIRECTION('',(1.,0.,-0.));
#433 = MANIFOLD_SOLID_BREP('',#434);
#434 = CLOSED_SHELL('',(#435,#468,#477));
#435 = ADVANCED_FACE('',(#436),#463,.T.);
#436 = FACE_BOUND('',#437,.T.);
#437 = EDGE_LOOP('',(#438,#447,#455,#462));
#438 = ORIENTED_EDGE('',*,*,#439,.F.);
#439 = EDGE_CURVE('',#440,#440,#442,.T.);
#440 = VERTEX_POINT('',#441);
#441 = CARTESIAN_POINT('',(2.5,120.,7.273661547325E-15));
#442 = CIRCLE('',#443,2.5);
#443 = AXIS2_PLACEMENT_3D('',#444,#445,#446);
#444 = CARTESIAN_POINT('',(0.,120.,6.661338147751E-15));
#445 = DIRECTION('',(0.,1.,2.22044604925E-16));
#446 = DIRECTION('',(1.,0.,-0.));
#447 = ORIENTED_EDGE('',*,*,#448,.F.);
#448 = EDGE_CURVE('',#449,#440,#451,.T.);
#449 = VERTEX_POINT('',#450);
#450 = CARTESIAN_POINT('',(2.5,90.,6.123233995737E-16));
#451 = LINE('',#452,#453);
#452 = CARTESIAN_POINT('',(2.5,90.,6.123233995737E-16));
#453 = VECTOR('',#454,1.);
#454 = DIRECTION('',(0.,1.,2.22044604925E-16));
#455 = ORIENTED_EDGE('',*,*,#456,.T.);
#456 = EDGE_CURVE('',#449,#449,#457,.T.);
#457 = CIRCLE('',#458,2.5);
#458 = AXIS2_PLACEMENT_3D('',#459,#460,#461);
#459 = CARTESIAN_POINT('',(0.,90.,0.));
#460 = DIRECTION('',(0.,1.,2.22044604925E-16));
#461 = DIRECTION('',(1.,0.,-0.));
#462 = ORIENTED_EDGE('',*,*,#448,.T.);
#463 = CYLINDRICAL_SURFACE('',#464,2.5);
#464 = AXIS2_PLACEMENT_3D('',#465,#466,#467);
#465 = CARTESIAN_POINT('',(0.,90.,0.));
#466 = DIRECTION('',(0.,1.,2.22044604925E-16));
#467 = DIRECTION('',(1.,0.,-0.));
#468 = ADVANCED_FACE('',(#469),#472,.T.);
#469 = FACE_BOUND('',#470,.T.);
#470 = EDGE_LOOP('',(#471));
#471 = ORIENTED_EDGE('',*,*,#439,.T.);
#472 = PLANE('',#473);
#473 = AXIS2_PLACEMENT_3D('',#474,#475,#476);
#474 = CARTESIAN_POINT('',(0.,120.,6.661338147751E-15));
#475 = DIRECTION('',(0.,1.,2.22044604925E-16));
#476 = DIRECTION('',(1.,0.,-0.));
#477 = ADVANCED_FACE('',(#478),#481,.F.);
#478 = FACE_BOUND('',#479,.T.);
#479 = EDGE_LOOP('',(#480));
#480 = ORIENTED_EDGE('',*,*,#456,.F.);
#481 = PLANE('',#482);
#482 = AXIS2_PLACEMENT_3D('',#483,#484,#485);
#483 = CARTESIAN_POINT('',(0.,90.,0.));
#484 = DIRECTION('',(0.,1.,2.22044604925E-16));
#485 = DIRECTION('',(1.,0.,-0.));
#486 = MANIFOLD_SOLID_BREP('',#487);
#487 = CLOSED_SHELL('',(#488,#521,#530));
#488 = ADVANCED_FACE('',(#489),#516,.T.);
#489 = FACE_BOUND('',#490,.T.);
#490 = EDGE_LOOP('',(#491,#500,#508,#515));
#491 = ORIENTED_EDGE('',*,*,#492,.F.);
#492 = EDGE_CURVE('',#493,#493,#495,.T.);
#493 = VERTEX_POINT('',#494);
#494 = CARTESIAN_POINT('',(202.5,120.,7.273661547325E-15));
#495 = CIRCLE('',#496,2.5);
#496 = AXIS2_PLACEMENT_3D('',#497,#498,#499);
#497 = CARTESIAN_POINT('',(200.,120.,6.661338147751E-15));
#498 = DIRECTION('',(0.,1.,2.22044604925E-16));
#499 = DIRECTION('',(1.,0.,-0.));
#500 = ORIENTED_EDGE('',*,*,#501,.F.);
#501 = EDGE_CURVE('',#502,#493,#504,.T.);
#502 = VERTEX_POINT('',#503);
#503 = CARTESIAN_POINT('',(202.5,90.,6.123233995737E-16));
#504 = LINE('',#505,#506);
#505 = CARTESIAN_POINT('',(202.5,90.,6.123233995737E-16));
#506 = VECTOR('',#507,1.);
#507 = DIRECTION('',(0.,1.,2.22044604925E-16));
#508 = ORIENTED_EDGE('',*,*,#509,.T.);
#509 = EDGE_CURVE('',#502,#502,#510,.T.);
#510 = CIRCLE('',#511,2.5);
#511 = AXIS2_PLACEMENT_3D('',#512,#513,#514);
#512 = CARTESIAN_POINT('',(200.,90.,0.));
#513 = DIRECTION('',(0.,1.,2.22044604925E-16));
#514 = DIRECTION('',(1.,0.,-0.));
#515 = ORIENTED_EDGE('',*,*,#501,.T.);
#516 = CYLINDRICAL_SURFACE('',#517,2.5);
#517 = AXIS2_PLACEMENT_3D('',#518,#519,#520);
#518 = CARTESIAN_POINT('',(200.,90.,0.));
#519 = DIRECTION('',(0.,1.,2.22044604925E-16));
#520 = DIRECTION('',(1.,0.,-0.));
#521 = ADVANCED_FACE('',(#522),#525,.T.);
#522 = FACE_BOUND('',#523,.T.);
#523 = EDGE_LOOP('',(#524));
#524 = ORIENTED_EDGE('',*,*,#492,.T.);
#525 = PLANE('',#526);
#526 = AXIS2_PLACEMENT_3D('',#527,#528,#529);
#527 = CARTESIAN_POINT('',(200.,120.,6.661338147751E-15));
#528 = DIRECTION('',(0.,1.,2.22044604925E-16));
#529 = DIRECTION('',(1.,0.,-0.));
#530 = ADVANCED_FACE('',(#531),#534,.F.);
#531 = FACE_BOUND('',#532,.T.);
#532 = EDGE_LOOP('',(#533));
#533 = ORIENTED_EDGE('',*,*,#509,.F.);
#534 = PLANE('',#535);
#535 = AXIS2_PLACEMENT_3D('',#536,#537,#538);
#536 = CARTESIAN_POINT('',(200.,90.,0.));
#537 = DIRECTION('',(0.,1.,2.22044604925E-16));
#538 = DIRECTION('',(1.,0.,-0.));
#539 = MANIFOLD_SOLID_BREP('',#540);
#540 = CLOSED_SHELL('',(#541,#581,#621,#643,#665,#677));
#541 = ADVANCED_FACE('',(#542),#576,.F.);
#542 = FACE_BOUND('',#543,.F.);
#543 = EDGE_LOOP('',(#544,#554,#562,#570));
#544 = ORIENTED_EDGE('',*,*,#545,.F.);
#545 = EDGE_CURVE('',#546,#548,#550,.T.);
#546 = VERTEX_POINT('',#547);
#547 = CARTESIAN_POINT('',(92.5,60.,60.));
#548 = VERTEX_POINT('',#549);
#549 = CARTESIAN_POINT('',(92.5,60.,63.));
#550 = LINE('',#551,#552);
#551 = CARTESIAN_POINT('',(92.5,60.,60.));
#552 = VECTOR('',#553,1.);
#553 = DIRECTION('',(0.,0.,1.));
#554 = ORIENTED_EDGE('',*,*,#555,.T.);
#555 = EDGE_CURVE('',#546,#556,#558,.T.);
#556 = VERTEX_POINT('',#557);
#557 = CARTESIAN_POINT('',(92.5,70.,60.));
#558 = LINE('',#559,#560);
#559 = CARTESIAN_POINT('',(92.5,60.,60.));
#560 = VECTOR('',#561,1.);
#561 = DIRECTION('',(0.,1.,0.));
#562 = ORIENTED_EDGE('',*,*,#563,.T.);
#563 = EDGE_CURVE('',#556,#564,#566,.T.);
#564 = VERTEX_POINT('',#565);
#565 = CARTESIAN_POINT('',(92.5,70.,63.));
#566 = LINE('',#567,#568);
#567 = CARTESIAN_POINT('',(92.5,70.,60.));
#568 = VECTOR('',#569,1.);
#569 = DIRECTION('',(0.,0.,1.));
#570 = ORIENTED_EDGE('',*,*,#571,.F.);
#571 = EDGE_CURVE('',#548,#564,#572,.T.);
#572 = LINE('',#573,#574);
#573 = CARTESIAN_POINT('',(92.5,60.,63.));
#574 = VECTOR('',#575,1.);
#575 = DIRECTION('',(0.,1.,0.));
#576 = PLANE('',#577);
#577 = AXIS2_PLACEMENT_3D('',#578,#579,#580);
#578 = CARTESIAN_POINT('',(92.5,60.,60.));
#579 = DIRECTION('',(1.,0.,0.));
#580 = DIRECTION('',(0.,0.,1.));
#581 = ADVANCED_FACE('',(#582),#616,.T.);
#582 = FACE_BOUND('',#583,.T.);
#583 = EDGE_LOOP('',(#584,#594,#602,#610));
#584 = ORIENTED_EDGE('',*,*,#585,.F.);
#585 = EDGE_CURVE('',#586,#588,#590,.T.);
#586 = VERTEX_POINT('',#587);
#587 = CARTESIAN_POINT('',(107.5,60.,60.));
#588 = VERTEX_POINT('',#589);
#589 = CARTESIAN_POINT('',(107.5,60.,63.));
#590 = LINE('',#591,#592);
#591 = CARTESIAN_POINT('',(107.5,60.,60.));
#592 = VECTOR('',#593,1.);
#593 = DIRECTION('',(0.,0.,1.));
#594 = ORIENTED_EDGE('',*,*,#595,.T.);
#595 = EDGE_CURVE('',#586,#596,#598,.T.);
#596 = VERTEX_POINT('',#597);
#597 = CARTESIAN_POINT('',(107.5,70.,60.));
#598 = LINE('',#599,#600);
#599 = CARTESIAN_POINT('',(107.5,60.,60.));
#600 = VECTOR('',#601,1.);
#601 = DIRECTION('',(0.,1.,0.));
#602 = ORIENTED_EDGE('',*,*,#603,.T.);
#603 = EDGE_CURVE('',#596,#604,#606,.T.);
#604 = VERTEX_POINT('',#605);
#605 = CARTESIAN_POINT('',(107.5,70.,63.));
#606 = LINE('',#607,#608);
#607 = CARTESIAN_POINT('',(107.5,70.,60.));
#608 = VECTOR('',#609,1.);
#609 = DIRECTION('',(0.,0.,1.));
#610 = ORIENTED_EDGE('',*,*,#611,.F.);
#611 = EDGE_CURVE('',#588,#604,#612,.T.);
#612 = LINE('',#613,#614);
#613 = CARTESIAN_POINT('',(107.5,60.,63.));
#614 = VECTOR('',#615,1.);
#615 = DIRECTION('',(0.,1.,0.));
#616 = PLANE('',#617);
#617 = AXIS2_PLACEMENT_3D('',#618,#619,#620);
#618 = CARTESIAN_POINT('',(107.5,60.,60.));
#619 = DIRECTION('',(1.,0.,0.));
#620 = DIRECTION('',(0.,0.,1.));
#621 = ADVANCED_FACE('',(#622),#638,.F.);
#622 = FACE_BOUND('',#623,.F.);
#623 = EDGE_LOOP('',(#624,#630,#631,#637));
#624 = ORIENTED_EDGE('',*,*,#625,.F.);
#625 = EDGE_CURVE('',#546,#586,#626,.T.);
#626 = LINE('',#627,#628);
#627 = CARTESIAN_POINT('',(92.5,60.,60.));
#628 = VECTOR('',#629,1.);
#629 = DIRECTION('',(1.,0.,0.));
#630 = ORIENTED_EDGE('',*,*,#545,.T.);
#631 = ORIENTED_EDGE('',*,*,#632,.T.);
#632 = EDGE_CURVE('',#548,#588,#633,.T.);
#633 = LINE('',#634,#635);
#634 = CARTESIAN_POINT('',(92.5,60.,63.));
#635 = VECTOR('',#636,1.);
#636 = DIRECTION('',(1.,0.,0.));
#637 = ORIENTED_EDGE('',*,*,#585,.F.);
#638 = PLANE('',#639);
#639 = AXIS2_PLACEMENT_3D('',#640,#641,#642);
#640 = CARTESIAN_POINT('',(92.5,60.,60.));
#641 = DIRECTION('',(0.,1.,0.));
#642 = DIRECTION('',(0.,0.,1.));
#643 = ADVANCED_FACE('',(#644),#660,.T.);
#644 = FACE_BOUND('',#645,.T.);
#645 = EDGE_LOOP('',(#646,#652,#653,#659));
#646 = ORIENTED_EDGE('',*,*,#647,.F.);
#647 = EDGE_CURVE('',#556,#596,#648,.T.);
#648 = LINE('',#649,#650);
#649 = CARTESIAN_POINT('',(92.5,70.,60.));
#650 = VECTOR('',#651,1.);
#651 = DIRECTION('',(1.,0.,0.));
#652 = ORIENTED_EDGE('',*,*,#563,.T.);
#653 = ORIENTED_EDGE('',*,*,#654,.T.);
#654 = EDGE_CURVE('',#564,#604,#655,.T.);
#655 = LINE('',#656,#657);
#656 = CARTESIAN_POINT('',(92.5,70.,63.));
#657 = VECTOR('',#658,1.);
#658 = DIRECTION('',(1.,0.,0.));
#659 = ORIENTED_EDGE('',*,*,#603,.F.);
#660 = PLANE('',#661);
#661 = AXIS2_PLACEMENT_3D('',#662,#663,#664);
#662 = CARTESIAN_POINT('',(92.5,70.,60.));
#663 = DIRECTION('',(0.,1.,0.));
#664 = DIRECTION('',(0.,0.,1.));
#665 = ADVANCED_FACE('',(#666),#672,.F.);
#666 = FACE_BOUND('',#667,.F.);
#667 = EDGE_LOOP('',(#668,#669,#670,#671));
#668 = ORIENTED_EDGE('',*,*,#555,.F.);
#669 = ORIENTED_EDGE('',*,*,#625,.T.);
#670 = ORIENTED_EDGE('',*,*,#595,.T.);
#671 = ORIENTED_EDGE('',*,*,#647,.F.);
#672 = PLANE('',#673);
#673 = AXIS2_PLACEMENT_3D('',#674,#675,#676);
#674 = CARTESIAN_POINT('',(92.5,60.,60.));
#675 = DIRECTION('',(0.,0.,1.));
#676 = DIRECTION('',(1.,0.,0.));
#677 = ADVANCED_FACE('',(#678),#684,.T.);
#678 = FACE_BOUND('',#679,.T.);
#679 = EDGE_LOOP('',(#680,#681,#682,#683));
#680 = ORIENTED_EDGE('',*,*,#571,.F.);
#681 = ORIENTED_EDGE('',*,*,#632,.T.);
#682 = ORIENTED_EDGE('',*,*,#611,.T.);
#683 = ORIENTED_EDGE('',*,*,#654,.F.);
#684 = PLANE('',#685);
#685 = AXIS2_PLACEMENT_3D('',#686,#687,#688);
#686 = CARTESIAN_POINT('',(92.5,60.,63.));
#687 = DIRECTION('',(0.,0.,1.));
#688 = DIRECTION('',(1.,0.,0.));
#689 = MANIFOLD_SOLID_BREP('',#690);
#690 = CLOSED_SHELL('',(#691,#731,#771,#793,#815,#827));
#691 = ADVANCED_FACE('',(#692),#726,.F.);
#692 = FACE_BOUND('',#693,.F.);
#693 = EDGE_LOOP('',(#694,#704,#712,#720));
#694 = ORIENTED_EDGE('',*,*,#695,.F.);
#695 = EDGE_CURVE('',#696,#698,#700,.T.);
#696 = VERTEX_POINT('',#697);
#697 = CARTESIAN_POINT('',(-15.,20.,30.));
#698 = VERTEX_POINT('',#699);
#699 = CARTESIAN_POINT('',(-15.,20.,55.));
#700 = LINE('',#701,#702);
#701 = CARTESIAN_POINT('',(-15.,20.,30.));
#702 = VECTOR('',#703,1.);
#703 = DIRECTION('',(0.,0.,1.));
#704 = ORIENTED_EDGE('',*,*,#705,.T.);
#705 = EDGE_CURVE('',#696,#706,#708,.T.);
#706 = VERTEX_POINT('',#707);
#707 = CARTESIAN_POINT('',(-15.,35.,30.));
#708 = LINE('',#709,#710);
#709 = CARTESIAN_POINT('',(-15.,20.,30.));
#710 = VECTOR('',#711,1.);
#711 = DIRECTION('',(0.,1.,0.));
#712 = ORIENTED_EDGE('',*,*,#713,.T.);
#713 = EDGE_CURVE('',#706,#714,#716,.T.);
#714 = VERTEX_POINT('',#715);
#715 = CARTESIAN_POINT('',(-15.,35.,55.));
#716 = LINE('',#717,#718);
#717 = CARTESIAN_POINT('',(-15.,35.,30.));
#718 = VECTOR('',#719,1.);
#719 = DIRECTION('',(0.,0.,1.));
#720 = ORIENTED_EDGE('',*,*,#721,.F.);
#721 = EDGE_CURVE('',#698,#714,#722,.T.);
#722 = LINE('',#723,#724);
#723 = CARTESIAN_POINT('',(-15.,20.,55.));
#724 = VECTOR('',#725,1.);
#725 = DIRECTION('',(0.,1.,0.));
#726 = PLANE('',#727);
#727 = AXIS2_PLACEMENT_3D('',#728,#729,#730);
#728 = CARTESIAN_POINT('',(-15.,20.,30.));
#729 = DIRECTION('',(1.,0.,0.));
#730 = DIRECTION('',(0.,0.,1.));
#731 = ADVANCED_FACE('',(#732),#766,.T.);
#732 = FACE_BOUND('',#733,.T.);
#733 = EDGE_LOOP('',(#734,#744,#752,#760));
#734 = ORIENTED_EDGE('',*,*,#735,.F.);
#735 = EDGE_CURVE('',#736,#738,#740,.T.);
#736 = VERTEX_POINT('',#737);
#737 = CARTESIAN_POINT('',(5.,20.,30.));
#738 = VERTEX_POINT('',#739);
#739 = CARTESIAN_POINT('',(5.,20.,55.));
#740 = LINE('',#741,#742);
#741 = CARTESIAN_POINT('',(5.,20.,30.));
#742 = VECTOR('',#743,1.);
#743 = DIRECTION('',(0.,0.,1.));
#744 = ORIENTED_EDGE('',*,*,#745,.T.);
#745 = EDGE_CURVE('',#736,#746,#748,.T.);
#746 = VERTEX_POINT('',#747);
#747 = CARTESIAN_POINT('',(5.,35.,30.));
#748 = LINE('',#749,#750);
#749 = CARTESIAN_POINT('',(5.,20.,30.));
#750 = VECTOR('',#751,1.);
#751 = DIRECTION('',(0.,1.,0.));
#752 = ORIENTED_EDGE('',*,*,#753,.T.);
#753 = EDGE_CURVE('',#746,#754,#756,.T.);
#754 = VERTEX_POINT('',#755);
#755 = CARTESIAN_POINT('',(5.,35.,55.));
#756 = LINE('',#757,#758);
#757 = CARTESIAN_POINT('',(5.,35.,30.));
#758 = VECTOR('',#759,1.);
#759 = DIRECTION('',(0.,0.,1.));
#760 = ORIENTED_EDGE('',*,*,#761,.F.);
#761 = EDGE_CURVE('',#738,#754,#762,.T.);
#762 = LINE('',#763,#764);
#763 = CARTESIAN_POINT('',(5.,20.,55.));
#764 = VECTOR('',#765,1.);
#765 = DIRECTION('',(0.,1.,0.));
#766 = PLANE('',#767);
#767 = AXIS2_PLACEMENT_3D('',#768,#769,#770);
#768 = CARTESIAN_POINT('',(5.,20.,30.));
#769 = DIRECTION('',(1.,0.,0.));
#770 = DIRECTION('',(0.,0.,1.));
#771 = ADVANCED_FACE('',(#772),#788,.F.);
#772 = FACE_BOUND('',#773,.F.);
#773 = EDGE_LOOP('',(#774,#780,#781,#787));
#774 = ORIENTED_EDGE('',*,*,#775,.F.);
#775 = EDGE_CURVE('',#696,#736,#776,.T.);
#776 = LINE('',#777,#778);
#777 = CARTESIAN_POINT('',(-15.,20.,30.));
#778 = VECTOR('',#779,1.);
#779 = DIRECTION('',(1.,0.,0.));
#780 = ORIENTED_EDGE('',*,*,#695,.T.);
#781 = ORIENTED_EDGE('',*,*,#782,.T.);
#782 = EDGE_CURVE('',#698,#738,#783,.T.);
#783 = LINE('',#784,#785);
#784 = CARTESIAN_POINT('',(-15.,20.,55.));
#785 = VECTOR('',#786,1.);
#786 = DIRECTION('',(1.,0.,0.));
#787 = ORIENTED_EDGE('',*,*,#735,.F.);
#788 = PLANE('',#789);
#789 = AXIS2_PLACEMENT_3D('',#790,#791,#792);
#790 = CARTESIAN_POINT('',(-15.,20.,30.));
#791 = DIRECTION('',(0.,1.,0.));
#792 = DIRECTION('',(0.,0.,1.));
#793 = ADVANCED_FACE('',(#794),#810,.T.);
#794 = FACE_BOUND('',#795,.T.);
#795 = EDGE_LOOP('',(#796,#802,#803,#809));
#796 = ORIENTED_EDGE('',*,*,#797,.F.);
#797 = EDGE_CURVE('',#706,#746,#798,.T.);
#798 = LINE('',#799,#800);
#799 = CARTESIAN_POINT('',(-15.,35.,30.));
#800 = VECTOR('',#801,1.);
#801 = DIRECTION('',(1.,0.,0.));
#802 = ORIENTED_EDGE('',*,*,#713,.T.);
#803 = ORIENTED_EDGE('',*,*,#804,.T.);
#804 = EDGE_CURVE('',#714,#754,#805,.T.);
#805 = LINE('',#806,#807);
#806 = CARTESIAN_POINT('',(-15.,35.,55.));
#807 = VECTOR('',#808,1.);
#808 = DIRECTION('',(1.,0.,0.));
#809 = ORIENTED_EDGE('',*,*,#753,.F.);
#810 = PLANE('',#811);
#811 = AXIS2_PLACEMENT_3D('',#812,#813,#814);
#812 = CARTESIAN_POINT('',(-15.,35.,30.));
#813 = DIRECTION('',(0.,1.,0.));
#814 = DIRECTION('',(0.,0.,1.));
#815 = ADVANCED_FACE('',(#816),#822,.F.);
#816 = FACE_BOUND('',#817,.F.);
#817 = EDGE_LOOP('',(#818,#819,#820,#821));
#818 = ORIENTED_EDGE('',*,*,#705,.F.);
#819 = ORIENTED_EDGE('',*,*,#775,.T.);
#820 = ORIENTED_EDGE('',*,*,#745,.T.);
#821 = ORIENTED_EDGE('',*,*,#797,.F.);
#822 = PLANE('',#823);
#823 = AXIS2_PLACEMENT_3D('',#824,#825,#826);
#824 = CARTESIAN_POINT('',(-15.,20.,30.));
#825 = DIRECTION('',(0.,0.,1.));
#826 = DIRECTION('',(1.,0.,0.));
#827 = ADVANCED_FACE('',(#828),#834,.T.);
#828 = FACE_BOUND('',#829,.T.);
#829 = EDGE_LOOP('',(#830,#831,#832,#833));
#830 = ORIENTED_EDGE('',*,*,#721,.F.);
#831 = ORIENTED_EDGE('',*,*,#782,.T.);
#832 = ORIENTED_EDGE('',*,*,#761,.T.);
#833 = ORIENTED_EDGE('',*,*,#804,.F.);
#834 = PLANE('',#835);
#835 = AXIS2_PLACEMENT_3D('',#836,#837,#838);
#836 = CARTESIAN_POINT('',(-15.,20.,55.));
#837 = DIRECTION('',(0.,0.,1.));
#838 = DIRECTION('',(1.,0.,0.));
#839 = ( GEOMETRIC_REPRESENTATION_CONTEXT(3) 
GLOBAL_UNCERTAINTY_ASSIGNED_CONTEXT((#843)) GLOBAL_UNIT_ASSIGNED_CONTEXT
((#840,#841,#842)) REPRESENTATION_CONTEXT('Context #1',
  '3D Context with UNIT and UNCERTAINTY') );
#840 = ( LENGTH_UNIT() NAMED_UNIT(*) SI_UNIT(.MILLI.,.METRE.) );
#841 = ( NAMED_UNIT(*) PLANE_ANGLE_UNIT() SI_UNIT($,.RADIAN.) );
#842 = ( NAMED_UNIT(*) SI_UNIT($,.STERADIAN.) SOLID_ANGLE_UNIT() );
#843 = UNCERTAINTY_MEASURE_WITH_UNIT(LENGTH_MEASURE(1.E-07),#840,
  'distance_accuracy_value','confusion accuracy');
#844 = PRODUCT_RELATED_PRODUCT_CATEGORY('part',$,(#7));
ENDSEC;
END-ISO-10303-21;
